<svg width="369" height="369" viewBox="0 0 369 369" fill="none" xmlns="http://www.w3.org/2000/svg">
<circle cx="184.5" cy="184.5" r="184.5" fill="white"/>
<circle cx="209.5" cy="177.5" r="33.5" fill="black"/>
<circle cx="209.5" cy="177.5" r="24.5" fill="#8CE2FF"/>
<rect x="188" y="194.875" width="56.1471" height="10.1326" transform="rotate(-46.7184 188 194.875)" fill="black"/>
<circle cx="70.3099" cy="191.31" r="33.5" transform="rotate(-41.969 70.3099 191.31)" fill="black"/>
<circle cx="70.3099" cy="191.31" r="24.5" transform="rotate(-41.969 70.3099 191.31)" fill="#FD614B"/>
<rect x="65.9434" y="218.606" width="56.1471" height="10.1326" transform="rotate(-88.6874 65.9434 218.606)" fill="black"/>
<circle cx="120.31" cy="301.31" r="33.5" transform="rotate(-41.969 120.31 301.31)" fill="black"/>
<circle cx="120.31" cy="301.31" r="24.5" transform="rotate(-41.969 120.31 301.31)" fill="#FECD0D"/>
<rect x="115.943" y="328.606" width="56.1471" height="10.1326" transform="rotate(-88.6874 115.943 328.606)" fill="black"/>
<path d="M127.48 52.3235C132.78 62.8226 127.085 76.3779 114.76 82.6001C102.434 88.8224 88.1455 85.3553 82.8453 74.8562C77.5452 64.3572 83.2404 50.8019 95.566 44.5797C107.892 38.3574 122.18 41.8245 127.48 52.3235Z" fill="black"/>
<path d="M155.155 107.144C160.455 117.643 154.76 131.198 142.434 137.42C130.108 143.643 115.82 140.176 110.52 129.676C105.22 119.177 110.915 105.622 123.24 99.3999C135.566 93.1776 149.855 96.6447 155.155 107.144Z" fill="black"/>
<path d="M82.6221 74.4141L127.257 51.8814L155.378 107.586L110.743 130.119L82.6221 74.4141Z" fill="black"/>
<path d="M123.719 60.405C128.152 69.1878 124.552 79.9395 115.678 84.4195C106.804 88.8995 96.0152 85.4114 91.5814 76.6285C87.1476 67.8456 90.7475 57.0939 99.6219 52.6139C108.496 48.1339 119.285 51.6221 123.719 60.405Z" fill="#FECD0D"/>
<path d="M146.869 106.264C151.303 115.047 147.703 125.799 138.829 130.279C129.954 134.759 119.166 131.271 114.732 122.488C110.298 113.705 113.898 102.953 122.773 98.4732C131.647 93.9932 142.435 97.4813 146.869 106.264Z" fill="#FECD0D"/>
<path d="M91.3947 76.2587L123.532 60.0351L147.056 106.634L114.919 122.858L91.3947 76.2587Z" fill="#FECD0D"/>
<rect x="94.8799" y="98.6955" width="50" height="7" transform="rotate(-26.7856 94.8799 98.6955)" fill="black"/>
<path d="M265.203 164.914C273.599 156.678 288.243 157.992 297.912 167.849C307.58 177.706 308.611 192.373 300.215 200.609C291.819 208.844 277.174 207.53 267.506 197.673C257.838 187.816 256.807 173.149 265.203 164.914Z" fill="black"/>
<path d="M309.043 121.912C317.439 113.676 332.084 114.991 341.752 124.848C351.42 134.705 352.452 149.371 344.055 157.607C335.659 165.843 321.015 164.528 311.347 154.671C301.678 144.814 300.647 130.147 309.043 121.912Z" fill="black"/>
<path d="M299.861 200.955L264.849 165.26L309.397 121.565L344.409 157.26L299.861 200.955Z" fill="black"/>
<path d="M274.045 166.046C281.068 159.157 292.405 159.325 299.367 166.422C306.328 173.519 306.277 184.857 299.253 191.747C292.23 198.636 280.892 198.468 273.931 191.371C266.97 184.274 267.021 172.936 274.045 166.046Z" fill="#FD614B"/>
<path d="M310.719 130.074C317.743 123.184 329.08 123.353 336.041 130.45C343.002 137.547 342.951 148.885 335.928 155.774C328.904 162.664 317.567 162.495 310.605 155.398C303.644 148.301 303.695 136.963 310.719 130.074Z" fill="#FD614B"/>
<path d="M298.958 192.037L273.749 166.336L311.015 129.784L336.223 155.484L298.958 192.037Z" fill="#FD614B"/>
<rect x="319.28" y="181.909" width="50" height="7" transform="rotate(-134.447 319.28 181.909)" fill="black"/>
<rect x="319.28" y="181.909" width="50" height="7" transform="rotate(-134.447 319.28 181.909)" fill="black"/>
<path d="M226.938 249.365C237.212 255.089 240.093 269.507 233.373 281.568C226.653 293.63 212.877 298.767 202.603 293.043C192.329 287.318 189.448 272.9 196.168 260.839C202.888 248.778 216.664 243.64 226.938 249.365Z" fill="black"/>
<path d="M280.583 279.254C290.857 284.978 293.738 299.396 287.018 311.457C280.298 323.519 266.522 328.656 256.248 322.932C245.974 317.207 243.093 302.789 249.813 290.728C256.533 278.667 270.309 273.529 280.583 279.254Z" fill="black"/>
<path d="M202.17 292.802L226.506 249.124L281.016 279.495L256.68 323.173L202.17 292.802Z" fill="black"/>
<path d="M228.353 258.166C236.947 262.954 239.992 273.876 235.154 282.56C230.315 291.245 219.426 294.403 210.831 289.614C202.236 284.825 199.191 273.904 204.03 265.219C208.868 256.535 219.758 253.377 228.353 258.166Z" fill="#27AE60"/>
<path d="M273.229 283.169C281.823 287.958 284.868 298.879 280.03 307.564C275.191 316.248 264.302 319.406 255.707 314.617C247.112 309.829 244.068 298.907 248.906 290.223C253.744 281.538 264.634 278.38 273.229 283.169Z" fill="#27AE60"/>
<path d="M210.469 289.412L227.991 257.964L273.591 283.371L256.069 314.819L210.469 289.412Z" fill="#27AE60"/>
<rect x="225.931" y="306.04" width="50" height="7" transform="rotate(-60.8752 225.931 306.04)" fill="black"/>
<rect x="225.931" y="306.04" width="50" height="7" transform="rotate(-60.8752 225.931 306.04)" fill="black"/>
</svg>
